<mxfile host="app.diagrams.net" modified="2023-10-29T23:49:42.196Z" agent="Mozilla/5.0 (Windows NT 10.0; Win64; x64) AppleWebKit/537.36 (KHTML, like Gecko) Chrome/118.0.0.0 Safari/537.36" etag="RSOi_N1grjtAIsvr3xW-" version="22.0.8" type="github">
  <diagram name="Página-1" id="FNxtUyEgke2GhoAg7VQY">
    <mxGraphModel dx="2074" dy="1156" grid="1" gridSize="10" guides="1" tooltips="1" connect="1" arrows="1" fold="1" page="1" pageScale="1" pageWidth="827" pageHeight="1169" math="0" shadow="0">
      <root>
        <mxCell id="0" />
        <mxCell id="1" parent="0" />
        <mxCell id="auYQfvz5_jpLHlG7Wb-k-2" value="" style="rounded=0;whiteSpace=wrap;html=1;" parent="1" vertex="1">
          <mxGeometry x="14" y="20" width="800" height="1110" as="geometry" />
        </mxCell>
        <mxCell id="auYQfvz5_jpLHlG7Wb-k-3" value="TREN" style="whiteSpace=wrap;html=1;align=center;fillColor=#f5f5f5;fontColor=#333333;strokeColor=#666666;" parent="1" vertex="1">
          <mxGeometry x="204.63" y="650" width="100" height="40" as="geometry" />
        </mxCell>
        <mxCell id="auYQfvz5_jpLHlG7Wb-k-75" value="" style="edgeStyle=orthogonalEdgeStyle;rounded=0;orthogonalLoop=1;jettySize=auto;html=1;endArrow=none;endFill=0;" parent="1" source="auYQfvz5_jpLHlG7Wb-k-5" edge="1">
          <mxGeometry relative="1" as="geometry">
            <mxPoint x="619" y="478" as="targetPoint" />
          </mxGeometry>
        </mxCell>
        <mxCell id="auYQfvz5_jpLHlG7Wb-k-5" value="CIUDAD" style="whiteSpace=wrap;html=1;align=center;fillColor=#f5f5f5;fontColor=#333333;strokeColor=#666666;" parent="1" vertex="1">
          <mxGeometry x="571" y="253" width="98" height="40" as="geometry" />
        </mxCell>
        <mxCell id="auYQfvz5_jpLHlG7Wb-k-6" style="edgeStyle=orthogonalEdgeStyle;rounded=0;orthogonalLoop=1;jettySize=auto;html=1;exitX=1;exitY=0.5;exitDx=0;exitDy=0;entryX=0;entryY=0.5;entryDx=0;entryDy=0;endArrow=none;endFill=0;" parent="1" source="auYQfvz5_jpLHlG7Wb-k-8" target="auYQfvz5_jpLHlG7Wb-k-11" edge="1">
          <mxGeometry relative="1" as="geometry" />
        </mxCell>
        <mxCell id="auYQfvz5_jpLHlG7Wb-k-7" style="edgeStyle=orthogonalEdgeStyle;rounded=0;orthogonalLoop=1;jettySize=auto;html=1;exitX=0.75;exitY=1;exitDx=0;exitDy=0;fontFamily=Helvetica;fontSize=14;fontColor=default;startSize=0;entryX=0;entryY=0.5;entryDx=0;entryDy=0;endArrow=none;endFill=0;dashed=1;dashPattern=1 2;" parent="1" source="auYQfvz5_jpLHlG7Wb-k-8" target="auYQfvz5_jpLHlG7Wb-k-35" edge="1">
          <mxGeometry relative="1" as="geometry">
            <mxPoint x="223.66666666666674" y="323" as="targetPoint" />
          </mxGeometry>
        </mxCell>
        <mxCell id="auYQfvz5_jpLHlG7Wb-k-8" value="LINEA" style="whiteSpace=wrap;html=1;align=center;fillColor=#f5f5f5;fontColor=#333333;strokeColor=#666666;" parent="1" vertex="1">
          <mxGeometry x="148.87" y="253" width="100" height="40" as="geometry" />
        </mxCell>
        <mxCell id="auYQfvz5_jpLHlG7Wb-k-9" style="edgeStyle=orthogonalEdgeStyle;rounded=0;orthogonalLoop=1;jettySize=auto;html=1;exitX=0.5;exitY=0;exitDx=0;exitDy=0;entryX=0.5;entryY=0;entryDx=0;entryDy=0;" parent="1" edge="1">
          <mxGeometry relative="1" as="geometry">
            <mxPoint x="54.99999999999999" y="578" as="sourcePoint" />
            <mxPoint x="54.99999999999999" y="578" as="targetPoint" />
          </mxGeometry>
        </mxCell>
        <mxCell id="auYQfvz5_jpLHlG7Wb-k-10" style="edgeStyle=orthogonalEdgeStyle;rounded=0;orthogonalLoop=1;jettySize=auto;html=1;exitX=1;exitY=0.5;exitDx=0;exitDy=0;entryX=0;entryY=0.5;entryDx=0;entryDy=0;endArrow=none;endFill=0;" parent="1" source="auYQfvz5_jpLHlG7Wb-k-11" target="auYQfvz5_jpLHlG7Wb-k-5" edge="1">
          <mxGeometry relative="1" as="geometry" />
        </mxCell>
        <mxCell id="auYQfvz5_jpLHlG7Wb-k-103" style="edgeStyle=orthogonalEdgeStyle;rounded=0;orthogonalLoop=1;jettySize=auto;html=1;exitX=0.5;exitY=0;exitDx=0;exitDy=0;dashed=1;dashPattern=1 2;endArrow=none;endFill=0;" parent="1" source="auYQfvz5_jpLHlG7Wb-k-11" target="auYQfvz5_jpLHlG7Wb-k-99" edge="1">
          <mxGeometry relative="1" as="geometry" />
        </mxCell>
        <mxCell id="auYQfvz5_jpLHlG7Wb-k-11" value="&lt;font style=&quot;font-size: 12px;&quot;&gt;PASA&lt;br&gt;1:N&lt;/font&gt;" style="shape=rhombus;perimeter=rhombusPerimeter;whiteSpace=wrap;html=1;align=center;verticalAlign=middle;fillColor=#d5e8d4;strokeColor=#82b366;" parent="1" vertex="1">
          <mxGeometry x="390.37" y="238" width="110" height="70" as="geometry" />
        </mxCell>
        <mxCell id="auYQfvz5_jpLHlG7Wb-k-12" style="rounded=0;orthogonalLoop=1;jettySize=auto;html=1;exitX=0;exitY=0.5;exitDx=0;exitDy=0;strokeColor=none;endArrow=none;endFill=0;shadow=1;" parent="1" edge="1">
          <mxGeometry relative="1" as="geometry">
            <mxPoint x="200.13" y="675" as="targetPoint" />
            <mxPoint x="180.13" y="660" as="sourcePoint" />
          </mxGeometry>
        </mxCell>
        <mxCell id="auYQfvz5_jpLHlG7Wb-k-13" value="(0, 1)" style="text;strokeColor=none;fillColor=none;spacingLeft=4;spacingRight=4;overflow=hidden;rotatable=0;points=[[0,0.5],[1,0.5]];portConstraint=eastwest;fontSize=12;whiteSpace=wrap;html=1;" parent="1" vertex="1">
          <mxGeometry x="254" y="253" width="50" height="20" as="geometry" />
        </mxCell>
        <mxCell id="auYQfvz5_jpLHlG7Wb-k-14" value="(1, N)" style="text;strokeColor=none;fillColor=none;spacingLeft=4;spacingRight=4;overflow=hidden;rotatable=0;points=[[0,0.5],[1,0.5]];portConstraint=eastwest;fontSize=12;whiteSpace=wrap;html=1;" parent="1" vertex="1">
          <mxGeometry x="521" y="253" width="50" height="30" as="geometry" />
        </mxCell>
        <mxCell id="auYQfvz5_jpLHlG7Wb-k-15" value="EJER. 11 -&amp;nbsp; COMPAÑIA_FERROVIARIA" style="text;html=1;align=center;verticalAlign=middle;resizable=0;points=[];autosize=1;strokeColor=#36393d;fillColor=#cce5ff;fontStyle=1;fontSize=12;" parent="1" vertex="1">
          <mxGeometry x="73.36999999999999" y="70" width="240" height="30" as="geometry" />
        </mxCell>
        <mxCell id="auYQfvz5_jpLHlG7Wb-k-16" style="edgeStyle=orthogonalEdgeStyle;rounded=0;orthogonalLoop=1;jettySize=auto;html=1;exitX=0;exitY=0.5;exitDx=0;exitDy=0;entryX=1;entryY=0.5;entryDx=0;entryDy=0;endArrow=none;endFill=0;startArrow=none;startFill=0;strokeColor=none;" parent="1" edge="1">
          <mxGeometry relative="1" as="geometry">
            <mxPoint x="81" y="288" as="sourcePoint" />
            <mxPoint x="131" y="288" as="targetPoint" />
          </mxGeometry>
        </mxCell>
        <mxCell id="auYQfvz5_jpLHlG7Wb-k-97" style="edgeStyle=orthogonalEdgeStyle;rounded=0;orthogonalLoop=1;jettySize=auto;html=1;exitX=0;exitY=0.5;exitDx=0;exitDy=0;entryX=1;entryY=0.5;entryDx=0;entryDy=0;dashed=1;dashPattern=1 2;endArrow=none;endFill=0;" parent="1" source="auYQfvz5_jpLHlG7Wb-k-17" target="auYQfvz5_jpLHlG7Wb-k-5" edge="1">
          <mxGeometry relative="1" as="geometry">
            <Array as="points">
              <mxPoint x="700" y="273" />
            </Array>
          </mxGeometry>
        </mxCell>
        <mxCell id="auYQfvz5_jpLHlG7Wb-k-17" value="num_habitantes" style="ellipse;whiteSpace=wrap;html=1;align=center;" parent="1" vertex="1">
          <mxGeometry x="700" y="275.5" width="100" height="40" as="geometry" />
        </mxCell>
        <mxCell id="auYQfvz5_jpLHlG7Wb-k-83" style="edgeStyle=orthogonalEdgeStyle;rounded=0;orthogonalLoop=1;jettySize=auto;html=1;exitDx=0;exitDy=0;entryX=0.75;entryY=0;entryDx=0;entryDy=0;dashed=1;dashPattern=1 2;endArrow=none;endFill=0;" parent="1" source="auYQfvz5_jpLHlG7Wb-k-19" target="auYQfvz5_jpLHlG7Wb-k-5" edge="1">
          <mxGeometry relative="1" as="geometry" />
        </mxCell>
        <mxCell id="auYQfvz5_jpLHlG7Wb-k-18" value="nombre" style="ellipse;whiteSpace=wrap;html=1;align=center;fontStyle=4;" parent="1" vertex="1">
          <mxGeometry x="680" y="213" width="100" height="40" as="geometry" />
        </mxCell>
        <mxCell id="auYQfvz5_jpLHlG7Wb-k-20" style="edgeStyle=orthogonalEdgeStyle;rounded=0;orthogonalLoop=1;jettySize=auto;html=1;exitX=0;exitY=0.5;exitDx=0;exitDy=0;entryX=0.5;entryY=1;entryDx=0;entryDy=0;dashed=1;dashPattern=1 2;endArrow=none;endFill=0;" parent="1" source="auYQfvz5_jpLHlG7Wb-k-21" edge="1">
          <mxGeometry relative="1" as="geometry">
            <mxPoint x="194.8699999999999" y="293" as="targetPoint" />
          </mxGeometry>
        </mxCell>
        <mxCell id="auYQfvz5_jpLHlG7Wb-k-21" value="nombre" style="ellipse;whiteSpace=wrap;html=1;align=center;" parent="1" vertex="1">
          <mxGeometry x="258.13" y="353" width="100" height="40" as="geometry" />
        </mxCell>
        <mxCell id="auYQfvz5_jpLHlG7Wb-k-22" style="edgeStyle=orthogonalEdgeStyle;rounded=0;orthogonalLoop=1;jettySize=auto;html=1;exitX=0.5;exitY=0;exitDx=0;exitDy=0;endArrow=none;endFill=0;entryX=0;entryY=0.5;entryDx=0;entryDy=0;" parent="1" source="auYQfvz5_jpLHlG7Wb-k-24" target="auYQfvz5_jpLHlG7Wb-k-8" edge="1">
          <mxGeometry relative="1" as="geometry">
            <mxPoint x="614" y="233" as="targetPoint" />
          </mxGeometry>
        </mxCell>
        <mxCell id="auYQfvz5_jpLHlG7Wb-k-23" style="edgeStyle=orthogonalEdgeStyle;rounded=0;orthogonalLoop=1;jettySize=auto;html=1;exitX=0.5;exitY=1;exitDx=0;exitDy=0;entryX=0;entryY=0.5;entryDx=0;entryDy=0;endArrow=none;endFill=0;" parent="1" source="auYQfvz5_jpLHlG7Wb-k-24" target="auYQfvz5_jpLHlG7Wb-k-3" edge="1">
          <mxGeometry relative="1" as="geometry" />
        </mxCell>
        <mxCell id="auYQfvz5_jpLHlG7Wb-k-24" value="HACE&lt;br&gt;N:N" style="rhombus;whiteSpace=wrap;html=1;fillColor=#d5e8d4;strokeColor=#82b366;" parent="1" vertex="1">
          <mxGeometry x="38.86999999999999" y="478" width="110" height="70" as="geometry" />
        </mxCell>
        <mxCell id="auYQfvz5_jpLHlG7Wb-k-25" style="edgeStyle=orthogonalEdgeStyle;rounded=0;orthogonalLoop=1;jettySize=auto;html=1;exitDx=0;exitDy=0;entryX=0.5;entryY=0;entryDx=0;entryDy=0;endArrow=none;endFill=0;dashed=1;dashPattern=1 2;" parent="1" edge="1">
          <mxGeometry relative="1" as="geometry">
            <mxPoint x="159.63" y="720" as="sourcePoint" />
            <mxPoint x="159.63" y="720" as="targetPoint" />
          </mxGeometry>
        </mxCell>
        <mxCell id="auYQfvz5_jpLHlG7Wb-k-26" style="edgeStyle=orthogonalEdgeStyle;rounded=0;orthogonalLoop=1;jettySize=auto;html=1;exitX=0;exitY=0;exitDx=0;exitDy=0;entryX=0.75;entryY=1;entryDx=0;entryDy=0;dashed=1;dashPattern=1 2;endArrow=none;endFill=0;" parent="1" source="auYQfvz5_jpLHlG7Wb-k-27" target="auYQfvz5_jpLHlG7Wb-k-3" edge="1">
          <mxGeometry relative="1" as="geometry">
            <Array as="points">
              <mxPoint x="294.63" y="690" />
            </Array>
          </mxGeometry>
        </mxCell>
        <mxCell id="auYQfvz5_jpLHlG7Wb-k-27" value="denominacion" style="ellipse;whiteSpace=wrap;html=1;align=center;" parent="1" vertex="1">
          <mxGeometry x="280.13" y="735" width="100" height="40" as="geometry" />
        </mxCell>
        <mxCell id="auYQfvz5_jpLHlG7Wb-k-28" style="edgeStyle=orthogonalEdgeStyle;rounded=0;orthogonalLoop=1;jettySize=auto;html=1;exitX=0.5;exitY=0;exitDx=0;exitDy=0;entryX=0.5;entryY=1;entryDx=0;entryDy=0;dashed=1;dashPattern=1 2;endArrow=none;endFill=0;" parent="1" source="auYQfvz5_jpLHlG7Wb-k-29" target="auYQfvz5_jpLHlG7Wb-k-3" edge="1">
          <mxGeometry relative="1" as="geometry">
            <Array as="points">
              <mxPoint x="254.63000000000002" y="690" />
            </Array>
          </mxGeometry>
        </mxCell>
        <mxCell id="auYQfvz5_jpLHlG7Wb-k-29" value="capacidad" style="ellipse;whiteSpace=wrap;html=1;align=center;fontStyle=0" parent="1" vertex="1">
          <mxGeometry x="205.13" y="775" width="100" height="40" as="geometry" />
        </mxCell>
        <mxCell id="auYQfvz5_jpLHlG7Wb-k-30" style="edgeStyle=orthogonalEdgeStyle;rounded=0;orthogonalLoop=1;jettySize=auto;html=1;exitDx=0;exitDy=0;entryX=1;entryY=0.5;entryDx=0;entryDy=0;dashed=1;dashPattern=1 2;endArrow=none;endFill=0;" parent="1" source="auYQfvz5_jpLHlG7Wb-k-34" target="auYQfvz5_jpLHlG7Wb-k-3" edge="1">
          <mxGeometry relative="1" as="geometry">
            <Array as="points">
              <mxPoint x="354.63" y="670" />
            </Array>
          </mxGeometry>
        </mxCell>
        <mxCell id="auYQfvz5_jpLHlG7Wb-k-31" value="codigo_tren" style="ellipse;whiteSpace=wrap;html=1;align=center;fontStyle=4" parent="1" vertex="1">
          <mxGeometry x="305.13" y="680" width="100" height="40" as="geometry" />
        </mxCell>
        <mxCell id="auYQfvz5_jpLHlG7Wb-k-32" value="(1, N)" style="text;strokeColor=none;fillColor=none;spacingLeft=4;spacingRight=4;overflow=hidden;rotatable=0;points=[[0,0.5],[1,0.5]];portConstraint=eastwest;fontSize=12;whiteSpace=wrap;html=1;" parent="1" vertex="1">
          <mxGeometry x="155.13" y="640" width="50" height="30" as="geometry" />
        </mxCell>
        <mxCell id="auYQfvz5_jpLHlG7Wb-k-33" value="" style="edgeStyle=orthogonalEdgeStyle;rounded=0;orthogonalLoop=1;jettySize=auto;html=1;exitX=0.5;exitY=0;exitDx=0;exitDy=0;entryDx=0;entryDy=0;dashed=1;dashPattern=1 2;endArrow=none;endFill=0;" parent="1" source="auYQfvz5_jpLHlG7Wb-k-31" target="auYQfvz5_jpLHlG7Wb-k-34" edge="1">
          <mxGeometry relative="1" as="geometry">
            <mxPoint x="355.13" y="680" as="sourcePoint" />
            <mxPoint x="310.13" y="630" as="targetPoint" />
          </mxGeometry>
        </mxCell>
        <mxCell id="auYQfvz5_jpLHlG7Wb-k-34" value="" style="shape=waypoint;sketch=0;fillStyle=solid;size=6;pointerEvents=1;points=[];fillColor=none;resizable=0;rotatable=0;perimeter=centerPerimeter;snapToPoint=1;" parent="1" vertex="1">
          <mxGeometry x="345.13" y="670" width="20" height="20" as="geometry" />
        </mxCell>
        <mxCell id="auYQfvz5_jpLHlG7Wb-k-35" value="codigo" style="ellipse;whiteSpace=wrap;html=1;align=center;fontStyle=4;" parent="1" vertex="1">
          <mxGeometry x="258.25" y="303" width="100" height="40" as="geometry" />
        </mxCell>
        <mxCell id="auYQfvz5_jpLHlG7Wb-k-36" value="(1, N)" style="text;strokeColor=none;fillColor=none;spacingLeft=4;spacingRight=4;overflow=hidden;rotatable=0;points=[[0,0.5],[1,0.5]];portConstraint=eastwest;fontSize=12;whiteSpace=wrap;html=1;" parent="1" vertex="1">
          <mxGeometry x="107.5" y="273" width="50" height="20" as="geometry" />
        </mxCell>
        <mxCell id="auYQfvz5_jpLHlG7Wb-k-48" value="" style="shape=waypoint;sketch=0;fillStyle=solid;size=6;pointerEvents=1;points=[];fillColor=none;resizable=0;rotatable=0;perimeter=centerPerimeter;snapToPoint=1;" parent="1" vertex="1">
          <mxGeometry x="249" y="313" width="20" height="20" as="geometry" />
        </mxCell>
        <mxCell id="auYQfvz5_jpLHlG7Wb-k-52" value="" style="shape=waypoint;sketch=0;fillStyle=solid;size=6;pointerEvents=1;points=[];fillColor=none;resizable=0;rotatable=0;perimeter=centerPerimeter;snapToPoint=1;" parent="1" vertex="1">
          <mxGeometry x="245.13" y="760" width="20" height="20" as="geometry" />
        </mxCell>
        <mxCell id="auYQfvz5_jpLHlG7Wb-k-79" style="edgeStyle=orthogonalEdgeStyle;rounded=0;orthogonalLoop=1;jettySize=auto;html=1;exitX=0.5;exitY=0;exitDx=0;exitDy=0;entryX=0.5;entryY=1;entryDx=0;entryDy=0;endArrow=none;endFill=0;" parent="1" source="auYQfvz5_jpLHlG7Wb-k-69" target="auYQfvz5_jpLHlG7Wb-k-78" edge="1">
          <mxGeometry relative="1" as="geometry" />
        </mxCell>
        <mxCell id="auYQfvz5_jpLHlG7Wb-k-69" value="CCAA" style="whiteSpace=wrap;html=1;align=center;fillColor=#f5f5f5;fontColor=#333333;strokeColor=#666666;" parent="1" vertex="1">
          <mxGeometry x="571" y="650" width="98" height="40" as="geometry" />
        </mxCell>
        <mxCell id="auYQfvz5_jpLHlG7Wb-k-78" value="PERTENECE&lt;br&gt;1:N" style="shape=rhombus;perimeter=rhombusPerimeter;whiteSpace=wrap;html=1;align=center;fillColor=#d5e8d4;strokeColor=#82b366;" parent="1" vertex="1">
          <mxGeometry x="565" y="468" width="110" height="80" as="geometry" />
        </mxCell>
        <mxCell id="auYQfvz5_jpLHlG7Wb-k-80" value="(1, 1)" style="text;strokeColor=none;fillColor=none;spacingLeft=4;spacingRight=4;overflow=hidden;rotatable=0;points=[[0,0.5],[1,0.5]];portConstraint=eastwest;fontSize=12;whiteSpace=wrap;html=1;" parent="1" vertex="1">
          <mxGeometry x="571.76" y="620" width="50" height="30" as="geometry" />
        </mxCell>
        <mxCell id="auYQfvz5_jpLHlG7Wb-k-82" style="edgeStyle=orthogonalEdgeStyle;rounded=0;orthogonalLoop=1;jettySize=auto;html=1;exitX=0;exitY=0.5;exitDx=0;exitDy=0;entryX=0.75;entryY=1;entryDx=0;entryDy=0;dashed=1;dashPattern=1 2;endArrow=none;endFill=0;" parent="1" source="auYQfvz5_jpLHlG7Wb-k-81" target="auYQfvz5_jpLHlG7Wb-k-5" edge="1">
          <mxGeometry relative="1" as="geometry" />
        </mxCell>
        <mxCell id="auYQfvz5_jpLHlG7Wb-k-81" value="situacion_geo" style="ellipse;whiteSpace=wrap;html=1;align=center;" parent="1" vertex="1">
          <mxGeometry x="700" y="330.5" width="100" height="40" as="geometry" />
        </mxCell>
        <mxCell id="auYQfvz5_jpLHlG7Wb-k-84" value="" style="edgeStyle=orthogonalEdgeStyle;rounded=0;orthogonalLoop=1;jettySize=auto;html=1;exitX=0;exitY=0.5;exitDx=0;exitDy=0;entryDx=0;entryDy=0;dashed=1;dashPattern=1 2;endArrow=none;endFill=0;" parent="1" source="auYQfvz5_jpLHlG7Wb-k-18" target="auYQfvz5_jpLHlG7Wb-k-19" edge="1">
          <mxGeometry relative="1" as="geometry">
            <mxPoint x="680" y="233" as="sourcePoint" />
            <mxPoint x="645" y="253" as="targetPoint" />
          </mxGeometry>
        </mxCell>
        <mxCell id="auYQfvz5_jpLHlG7Wb-k-19" value="" style="shape=waypoint;sketch=0;fillStyle=solid;size=6;pointerEvents=1;points=[];fillColor=none;resizable=0;rotatable=0;perimeter=centerPerimeter;snapToPoint=1;" parent="1" vertex="1">
          <mxGeometry x="669" y="223" width="20" height="20" as="geometry" />
        </mxCell>
        <mxCell id="auYQfvz5_jpLHlG7Wb-k-85" value="(1, N)" style="text;strokeColor=none;fillColor=none;spacingLeft=4;spacingRight=4;overflow=hidden;rotatable=0;points=[[0,0.5],[1,0.5]];portConstraint=eastwest;fontSize=12;whiteSpace=wrap;html=1;" parent="1" vertex="1">
          <mxGeometry x="571" y="293" width="50" height="30" as="geometry" />
        </mxCell>
        <mxCell id="auYQfvz5_jpLHlG7Wb-k-93" style="edgeStyle=orthogonalEdgeStyle;rounded=0;orthogonalLoop=1;jettySize=auto;html=1;exitX=0.5;exitY=0;exitDx=0;exitDy=0;entryX=0;entryY=0.5;entryDx=0;entryDy=0;dashed=1;dashPattern=1 2;endArrow=none;endFill=0;" parent="1" source="auYQfvz5_jpLHlG7Wb-k-88" target="auYQfvz5_jpLHlG7Wb-k-69" edge="1">
          <mxGeometry relative="1" as="geometry" />
        </mxCell>
        <mxCell id="auYQfvz5_jpLHlG7Wb-k-88" value="nombre" style="ellipse;whiteSpace=wrap;html=1;align=center;fontStyle=4;" parent="1" vertex="1">
          <mxGeometry x="462.76" y="710" width="100" height="40" as="geometry" />
        </mxCell>
        <mxCell id="auYQfvz5_jpLHlG7Wb-k-89" value="" style="shape=waypoint;sketch=0;fillStyle=solid;size=6;pointerEvents=1;points=[];fillColor=none;resizable=0;rotatable=0;perimeter=centerPerimeter;snapToPoint=1;" parent="1" vertex="1">
          <mxGeometry x="502.75999999999993" y="700" width="20" height="20" as="geometry" />
        </mxCell>
        <mxCell id="auYQfvz5_jpLHlG7Wb-k-94" style="edgeStyle=orthogonalEdgeStyle;rounded=0;orthogonalLoop=1;jettySize=auto;html=1;exitX=1;exitY=0;exitDx=0;exitDy=0;entryX=0.25;entryY=1;entryDx=0;entryDy=0;dashed=1;dashPattern=1 2;endArrow=none;endFill=0;" parent="1" source="auYQfvz5_jpLHlG7Wb-k-90" target="auYQfvz5_jpLHlG7Wb-k-69" edge="1">
          <mxGeometry relative="1" as="geometry">
            <Array as="points">
              <mxPoint x="596" y="766" />
              <mxPoint x="596" y="725" />
            </Array>
          </mxGeometry>
        </mxCell>
        <mxCell id="auYQfvz5_jpLHlG7Wb-k-90" value="num_provincias" style="ellipse;whiteSpace=wrap;html=1;align=center;" parent="1" vertex="1">
          <mxGeometry x="513.34" y="760" width="100" height="40" as="geometry" />
        </mxCell>
        <mxCell id="auYQfvz5_jpLHlG7Wb-k-95" style="edgeStyle=orthogonalEdgeStyle;rounded=0;orthogonalLoop=1;jettySize=auto;html=1;exitX=0;exitY=0;exitDx=0;exitDy=0;dashed=1;dashPattern=1 2;endArrow=none;endFill=0;" parent="1" source="auYQfvz5_jpLHlG7Wb-k-91" edge="1">
          <mxGeometry relative="1" as="geometry">
            <mxPoint x="636" y="690" as="targetPoint" />
            <Array as="points">
              <mxPoint x="636" y="725" />
              <mxPoint x="636" y="691" />
              <mxPoint x="620" y="691" />
            </Array>
          </mxGeometry>
        </mxCell>
        <mxCell id="auYQfvz5_jpLHlG7Wb-k-91" value="num_habitantes" style="ellipse;whiteSpace=wrap;html=1;align=center;" parent="1" vertex="1">
          <mxGeometry x="621.76" y="760" width="100" height="40" as="geometry" />
        </mxCell>
        <mxCell id="auYQfvz5_jpLHlG7Wb-k-96" style="edgeStyle=orthogonalEdgeStyle;rounded=0;orthogonalLoop=1;jettySize=auto;html=1;exitX=0.5;exitY=0;exitDx=0;exitDy=0;entryX=1;entryY=0.5;entryDx=0;entryDy=0;dashed=1;dashPattern=1 2;endArrow=none;endFill=0;" parent="1" source="auYQfvz5_jpLHlG7Wb-k-92" target="auYQfvz5_jpLHlG7Wb-k-69" edge="1">
          <mxGeometry relative="1" as="geometry" />
        </mxCell>
        <mxCell id="auYQfvz5_jpLHlG7Wb-k-92" value="extension_km" style="ellipse;whiteSpace=wrap;html=1;align=center;" parent="1" vertex="1">
          <mxGeometry x="666.76" y="710" width="100" height="40" as="geometry" />
        </mxCell>
        <mxCell id="auYQfvz5_jpLHlG7Wb-k-100" style="edgeStyle=orthogonalEdgeStyle;rounded=0;orthogonalLoop=1;jettySize=auto;html=1;exitX=0.5;exitY=1;exitDx=0;exitDy=0;dashed=1;dashPattern=1 2;endArrow=none;endFill=0;" parent="1" source="auYQfvz5_jpLHlG7Wb-k-98" target="auYQfvz5_jpLHlG7Wb-k-99" edge="1">
          <mxGeometry relative="1" as="geometry" />
        </mxCell>
        <mxCell id="auYQfvz5_jpLHlG7Wb-k-98" value="hora_parada" style="ellipse;whiteSpace=wrap;html=1;align=center;fontStyle=4;" parent="1" vertex="1">
          <mxGeometry x="395.37" y="150" width="100" height="40" as="geometry" />
        </mxCell>
        <mxCell id="auYQfvz5_jpLHlG7Wb-k-99" value="" style="shape=waypoint;sketch=0;fillStyle=solid;size=6;pointerEvents=1;points=[];fillColor=none;resizable=0;rotatable=0;perimeter=centerPerimeter;snapToPoint=1;" parent="1" vertex="1">
          <mxGeometry x="435.37" y="182" width="20" height="20" as="geometry" />
        </mxCell>
        <mxCell id="auYQfvz5_jpLHlG7Wb-k-105" style="edgeStyle=orthogonalEdgeStyle;rounded=0;orthogonalLoop=1;jettySize=auto;html=1;exitX=0;exitY=0.5;exitDx=0;exitDy=0;entryX=0.25;entryY=1;entryDx=0;entryDy=0;dashed=1;dashPattern=1 2;endArrow=none;endFill=0;" parent="1" source="auYQfvz5_jpLHlG7Wb-k-104" target="auYQfvz5_jpLHlG7Wb-k-8" edge="1">
          <mxGeometry relative="1" as="geometry" />
        </mxCell>
        <mxCell id="auYQfvz5_jpLHlG7Wb-k-104" value="hora_origen" style="ellipse;whiteSpace=wrap;html=1;align=center;" parent="1" vertex="1">
          <mxGeometry x="258.25" y="398" width="100" height="40" as="geometry" />
        </mxCell>
        <mxCell id="auYQfvz5_jpLHlG7Wb-k-106" value="hora_destino" style="ellipse;whiteSpace=wrap;html=1;align=center;" parent="1" vertex="1">
          <mxGeometry x="258.25" y="448" width="100" height="40" as="geometry" />
        </mxCell>
        <mxCell id="auYQfvz5_jpLHlG7Wb-k-107" style="edgeStyle=orthogonalEdgeStyle;rounded=0;orthogonalLoop=1;jettySize=auto;html=1;exitX=0;exitY=0.5;exitDx=0;exitDy=0;entryX=0.078;entryY=1.007;entryDx=0;entryDy=0;entryPerimeter=0;dashed=1;dashPattern=1 2;endArrow=none;endFill=0;" parent="1" source="auYQfvz5_jpLHlG7Wb-k-106" target="auYQfvz5_jpLHlG7Wb-k-8" edge="1">
          <mxGeometry relative="1" as="geometry" />
        </mxCell>
        <mxCell id="auYQfvz5_jpLHlG7Wb-k-108" value="potencia_motor" style="ellipse;whiteSpace=wrap;html=1;align=center;fontStyle=4" parent="1" vertex="1">
          <mxGeometry x="104.63000000000001" y="735" width="100" height="40" as="geometry" />
        </mxCell>
        <mxCell id="auYQfvz5_jpLHlG7Wb-k-109" style="edgeStyle=orthogonalEdgeStyle;rounded=0;orthogonalLoop=1;jettySize=auto;html=1;exitX=0.5;exitY=0;exitDx=0;exitDy=0;entryX=0.238;entryY=1.104;entryDx=0;entryDy=0;entryPerimeter=0;dashed=1;dashPattern=1 2;endArrow=none;endFill=0;" parent="1" source="auYQfvz5_jpLHlG7Wb-k-108" target="auYQfvz5_jpLHlG7Wb-k-3" edge="1">
          <mxGeometry relative="1" as="geometry">
            <Array as="points">
              <mxPoint x="228.76" y="735" />
            </Array>
          </mxGeometry>
        </mxCell>
        <mxCell id="auYQfvz5_jpLHlG7Wb-k-124" value="" style="group" parent="1" vertex="1" connectable="0">
          <mxGeometry x="88.25" y="880" width="440" height="170" as="geometry" />
        </mxCell>
        <mxCell id="auYQfvz5_jpLHlG7Wb-k-1" value="&lt;div style=&quot;text-align: justify;&quot;&gt;&lt;span style=&quot;background-color: initial;&quot;&gt;TREN (#nombre, duracion, discografia, nombre_comp , nombre_disco)&lt;/span&gt;&lt;/div&gt;&lt;div style=&quot;text-align: justify;&quot;&gt;&lt;br&gt;&lt;/div&gt;&lt;div style=&quot;text-align: justify;&quot;&gt;LINEA (#codigo, nombre, hora_prigen, hora_destino)&lt;/div&gt;&lt;div style=&quot;text-align: justify;&quot;&gt;&lt;br&gt;&lt;/div&gt;&lt;div style=&quot;text-align: justify;&quot;&gt;CCAA (#nombre, num_provincias, num_habitantes, extension_km)&lt;/div&gt;&lt;div style=&quot;text-align: justify;&quot;&gt;&lt;br&gt;&lt;/div&gt;&lt;div style=&quot;text-align: justify;&quot;&gt;CIUDAD(#nombre, num_hab, situacion_geografica, cod_linea, nombre_ccaa)&lt;/div&gt;&lt;div style=&quot;text-align: justify;&quot;&gt;&lt;br&gt;&lt;/div&gt;&lt;div style=&quot;text-align: justify;&quot;&gt;HACE (#cod_tren, #cod_linea)&lt;/div&gt;" style="text;html=1;align=center;verticalAlign=middle;resizable=1;points=[];autosize=1;strokeColor=none;fillColor=none;movable=1;rotatable=1;deletable=1;editable=1;locked=0;connectable=1;container=0;" parent="auYQfvz5_jpLHlG7Wb-k-124" vertex="1">
          <mxGeometry width="440" height="165" as="geometry" />
        </mxCell>
        <mxCell id="auYQfvz5_jpLHlG7Wb-k-115" value="LINEA" style="text;html=1;strokeColor=none;fillColor=none;align=center;verticalAlign=middle;whiteSpace=wrap;rounded=0;fontSize=9;container=0;" parent="auYQfvz5_jpLHlG7Wb-k-124" vertex="1">
          <mxGeometry x="291.88" y="120" width="49.5" height="20" as="geometry" />
        </mxCell>
        <mxCell id="auYQfvz5_jpLHlG7Wb-k-116" value="" style="endArrow=none;dashed=1;html=1;rounded=0;exitX=0;exitY=0;exitDx=0;exitDy=0;entryX=1;entryY=0;entryDx=0;entryDy=0;" parent="auYQfvz5_jpLHlG7Wb-k-124" source="auYQfvz5_jpLHlG7Wb-k-115" target="auYQfvz5_jpLHlG7Wb-k-115" edge="1">
          <mxGeometry width="50" height="50" relative="1" as="geometry">
            <mxPoint x="278.93000000000006" y="131" as="sourcePoint" />
            <mxPoint x="356.8299999999999" y="130" as="targetPoint" />
          </mxGeometry>
        </mxCell>
        <mxCell id="auYQfvz5_jpLHlG7Wb-k-117" value="CCAA" style="text;html=1;strokeColor=none;fillColor=none;align=center;verticalAlign=middle;whiteSpace=wrap;rounded=0;fontSize=9;container=0;" parent="auYQfvz5_jpLHlG7Wb-k-124" vertex="1">
          <mxGeometry x="351.75" y="120" width="70" height="20" as="geometry" />
        </mxCell>
        <mxCell id="auYQfvz5_jpLHlG7Wb-k-118" value="" style="endArrow=none;dashed=1;html=1;rounded=0;exitX=0;exitY=0;exitDx=0;exitDy=0;entryX=1;entryY=0;entryDx=0;entryDy=0;" parent="auYQfvz5_jpLHlG7Wb-k-124" source="auYQfvz5_jpLHlG7Wb-k-117" target="auYQfvz5_jpLHlG7Wb-k-117" edge="1">
          <mxGeometry width="50" height="50" relative="1" as="geometry">
            <mxPoint x="349.16999999999996" y="120" as="sourcePoint" />
            <mxPoint x="427.06999999999994" y="119" as="targetPoint" />
          </mxGeometry>
        </mxCell>
        <mxCell id="auYQfvz5_jpLHlG7Wb-k-119" value="TREN" style="text;html=1;strokeColor=none;fillColor=none;align=center;verticalAlign=middle;whiteSpace=wrap;rounded=0;fontSize=9;container=0;" parent="auYQfvz5_jpLHlG7Wb-k-124" vertex="1">
          <mxGeometry x="61.75" y="150" width="44.87" height="20" as="geometry" />
        </mxCell>
        <mxCell id="auYQfvz5_jpLHlG7Wb-k-120" value="" style="endArrow=none;dashed=1;html=1;rounded=0;exitX=0;exitY=0;exitDx=0;exitDy=0;entryX=1;entryY=0;entryDx=0;entryDy=0;" parent="auYQfvz5_jpLHlG7Wb-k-124" source="auYQfvz5_jpLHlG7Wb-k-119" target="auYQfvz5_jpLHlG7Wb-k-119" edge="1">
          <mxGeometry width="50" height="50" relative="1" as="geometry">
            <mxPoint x="44.299999999999955" y="150" as="sourcePoint" />
            <mxPoint x="122.19999999999993" y="149" as="targetPoint" />
          </mxGeometry>
        </mxCell>
        <mxCell id="auYQfvz5_jpLHlG7Wb-k-122" value="LINEA" style="text;html=1;strokeColor=none;fillColor=none;align=center;verticalAlign=middle;whiteSpace=wrap;rounded=0;fontSize=9;container=0;" parent="auYQfvz5_jpLHlG7Wb-k-124" vertex="1">
          <mxGeometry x="120.88" y="150" width="44.87" height="20" as="geometry" />
        </mxCell>
        <mxCell id="auYQfvz5_jpLHlG7Wb-k-123" value="" style="endArrow=none;dashed=1;html=1;rounded=0;exitX=0;exitY=0;exitDx=0;exitDy=0;entryX=1;entryY=0;entryDx=0;entryDy=0;" parent="auYQfvz5_jpLHlG7Wb-k-124" source="auYQfvz5_jpLHlG7Wb-k-122" target="auYQfvz5_jpLHlG7Wb-k-122" edge="1">
          <mxGeometry width="50" height="50" relative="1" as="geometry">
            <mxPoint x="103.42999999999995" y="150" as="sourcePoint" />
            <mxPoint x="181.32999999999993" y="149" as="targetPoint" />
          </mxGeometry>
        </mxCell>
      </root>
    </mxGraphModel>
  </diagram>
</mxfile>
